<?xml version="1.0" encoding="UTF-8"?>
<svg width="100px" height="100px" viewBox="0 0 100 100" version="1.1" xmlns="http://www.w3.org/2000/svg" xmlns:xlink="http://www.w3.org/1999/xlink">
    <!-- Generator: Sketch 55.2 (78181) - https://sketchapp.com -->
    <title>Group 5</title>
    <desc>Created with Sketch.</desc>
    <g id="Page-1" stroke="none" stroke-width="1" fill="none" fill-rule="evenodd">
        <g id="Landing-Page---Desktop" transform="translate(-532.000000, -368.000000)">
            <g id="Group-5" transform="translate(532.000000, 368.000000)">
                <circle id="Gold-Circle" fill="#C99B55" cx="50" cy="50" r="50"></circle>
                <circle id="Gold-Circle" fill="#A1804D" cx="50" cy="50" r="39"></circle>
                <path d="M64,57.8128523 C64,59.6647969 63.4991106,61.367899 62.4973166,62.9222097 C61.4955227,64.4765204 60.0095507,65.7166432 58.039356,66.6426156 C56.0691613,67.5685879 53.6982846,68.0315671 50.9266547,68.0315671 L50.9266547,72 L48.7728086,72 L48.7728086,67.9323563 C45.1329574,67.6347223 42.1693615,66.5434142 39.881932,64.6583991 C37.5945026,62.773384 36.3339308,60.2600683 36.1001789,57.1183766 L45.216458,57.1183766 C45.3166374,58.1766306 45.6756081,59.0695191 46.293381,59.7970688 C46.911154,60.5246184 47.7376215,61.0206676 48.7728086,61.2852311 L48.7728086,53.3979707 C48.2051254,53.2326185 47.8378064,53.1168737 47.6708408,53.0507328 C45.2331423,52.3562536 43.2379326,51.6535173 41.6851521,50.9425028 C40.1323715,50.2314884 38.7966663,49.1732502 37.6779964,47.7677565 C36.5593265,46.3622628 36,44.5020785 36,42.1871477 C36,40.1698509 36.5593265,38.4006089 37.6779964,36.8793687 C38.7966663,35.3581284 40.3243791,34.1924129 42.2611807,33.3821871 C44.1979823,32.5719614 46.3685032,32.1337846 48.7728086,32.0676437 L48.7728086,28 L50.9266547,28 L50.9266547,32.1172492 C54.5998991,32.3487422 57.5217542,33.382178 59.6923077,35.2175874 C61.8628612,37.0529968 63.0816922,39.4753701 63.3488372,42.4847802 L54.0822898,42.4847802 C53.9487173,41.492667 53.614791,40.6824533 53.0805009,40.054115 C52.5462108,39.4257766 51.8282693,38.9958674 50.9266547,38.7643743 L50.9266547,46.5028185 L52.4794275,46.9988726 C54.9171261,47.7594927 56.8956394,48.495299 58.4150268,49.2063134 C59.9344143,49.9173279 61.245075,50.9672986 62.3470483,52.356257 C63.4490216,53.7452155 64,55.5640624 64,57.8128523 Z M45,42.1862069 C45,43.0551768 45.3425892,43.7873533 46.0277778,44.3827586 C46.7129664,44.9781639 47.7036972,45.517239 49,46 L49,39 C47.7407344,39.0643681 46.7592628,39.3701122 46.0555556,39.9172414 C45.3518483,40.4643706 45,41.2206848 45,42.1862069 Z M51,61 C52.2307754,60.9688887 53.2051246,60.650003 53.9230769,60.0433333 C54.6410292,59.4366636 55,58.6511159 55,57.6866667 C55,56.8155512 54.6581231,56.0922251 53.974359,55.5166667 C53.2905949,54.9411082 52.2991518,54.4355577 51,54 L51,61 Z" id="$" fill="#FACC86" fill-rule="nonzero"></path>
            </g>
        </g>
    </g>
</svg>