<?xml version="1.0" encoding="UTF-8"?>
<svg width="489px" height="304px" viewBox="0 0 489 304" version="1.1" xmlns="http://www.w3.org/2000/svg" xmlns:xlink="http://www.w3.org/1999/xlink">
    <!-- Generator: Sketch 55.2 (78181) - https://sketchapp.com -->
    <title>Group 6</title>
    <desc>Created with Sketch.</desc>
    <g id="Page-1" stroke="none" stroke-width="1" fill="none" fill-rule="evenodd">
        <g id="Landing-Page---Desktop" transform="translate(-911.000000, -556.000000)">
            <g id="Group-6" transform="translate(911.000000, 556.000000)">
                <path d="M149.145073,185.8 C149.145073,245.373348 197.442851,293.667089 257.021179,293.667089 C316.599507,293.667089 364.897285,245.373348 364.897285,185.8 L286.726194,185.8 C286.726194,202.204255 273.426806,215.502532 257.021179,215.502532 C240.615552,215.502532 227.316164,202.204255 227.316164,185.8 L149.145073,185.8 Z" id="Path" fill="#5BC4B1" fill-rule="nonzero" transform="translate(257.021179, 239.733544) rotate(36.000000) translate(-257.021179, -239.733544) "></path>
                <rect id="Rectangle" fill="#51C07F" x="0" y="257" width="200" height="47"></rect>
                <polygon id="Rectangle" fill="#FACC86" transform="translate(100.451327, 224.451327) rotate(-45.000000) translate(-100.451327, -224.451327) " points="77 201 123.900695 201.00196 123.902655 247.902655 77.0019603 247.900695"></polygon>
                <circle id="Oval" fill="#F6B19A" cx="433" cy="132" r="28"></circle>
                <rect id="Rectangle" fill="#D78556" x="376" y="191" width="113" height="113"></rect>
                <g id="Group-5" transform="translate(256.000000, 48.000000)">
                    <circle id="Gold-Circle" fill="#C99B55" cx="56.5" cy="56.5" r="56.5"></circle>
                    <circle id="Gold-Circle" fill="#A1804D" cx="56.9280303" cy="56.9280303" r="44.0871212"></circle>
                    <path d="M73.6212121,65.8963992 C73.6212121,68.0222454 73.0545945,69.9772353 71.9213422,71.7614277 C70.78809,73.54562 69.1071243,74.9691564 66.8783949,76.0320795 C64.6496654,77.0950026 61.9676753,77.6264562 58.832344,77.6264562 L58.832344,82.1818182 L56.3958638,82.1818182 L56.3958638,77.5125722 C52.2783806,77.1709183 48.9258929,75.9182063 46.3383003,73.7543986 C43.7507076,71.5905908 42.3247199,68.7055571 42.0602944,65.0992108 L52.3728384,65.0992108 C52.4861636,66.3139801 52.8922396,67.3389263 53.5910785,68.1740801 C54.2899174,69.009234 55.2248365,69.5786486 56.3958638,69.8823409 L56.3958638,60.828559 C55.7536875,60.6387513 55.3381679,60.5058879 55.1492926,60.4299648 C52.3917121,59.6327725 50.1346852,58.8261019 48.3781441,58.0099288 C46.6216031,57.1937557 45.1106228,55.9790046 43.8451577,54.3656392 C42.5796927,52.7522738 41.9469697,50.6169692 41.9469697,47.9596614 C41.9469697,45.6440075 42.5796927,43.6130956 43.8451577,41.8668648 C45.1106228,40.120634 46.8388066,38.7825098 49.0297609,37.8524521 C51.2207153,36.9223944 53.6760584,36.4194115 56.3958638,36.3434884 L56.3958638,31.6742424 L58.832344,31.6742424 L58.832344,36.4004305 C62.9876023,36.6661612 66.2928718,37.8524416 68.7482517,39.959307 C71.2036317,42.0661724 72.5824012,44.8468135 72.8846018,48.3013136 L62.4020708,48.3013136 C62.2509705,47.1624674 61.8732254,46.2324236 61.2688242,45.5111544 C60.664423,44.7898851 59.8522711,44.2963925 58.832344,44.0306617 L58.832344,52.9136176 L60.5888762,53.4830378 C63.3464568,54.3561532 65.5845964,55.2007848 67.3033623,56.0169579 C69.0221283,56.833131 70.5047777,58.0383918 71.7513552,59.6327765 C72.9979327,61.2271611 73.6212121,63.3150145 73.6212121,65.8963992 Z M52.1279762,47.9585815 C52.1279762,48.9560715 52.5155209,49.7965366 53.290622,50.480002 C54.0657231,51.1634674 55.1864605,51.7822714 56.652868,52.3364325 L56.652868,44.3011364 C55.2283579,44.3750245 54.1180946,44.725988 53.3220449,45.3540372 C52.5259951,45.9820865 52.1279762,46.8502593 52.1279762,47.9585815 Z M58.9153139,69.5549242 C60.3075952,69.5192116 61.4098014,69.1531629 62.2219655,68.4567671 C63.0341297,67.7603713 63.4402056,66.8586415 63.4402056,65.7515507 C63.4402056,64.7515978 63.0534666,63.9212921 62.279977,63.2606089 C61.5064873,62.5999257 60.3849442,62.0196046 58.9153139,61.5196281 L58.9153139,69.5549242 Z" id="$" fill="#FACC86" fill-rule="nonzero"></path>
                </g>
                <rect id="Rectangle" fill="#F5F2EE" transform="translate(392.000000, 19.000000) rotate(-15.000000) translate(-392.000000, -19.000000) " x="377" y="4" width="30" height="30"></rect>
            </g>
        </g>
    </g>
</svg>