<?xml version="1.0" encoding="UTF-8"?>
<svg width="772px" height="28px" viewBox="0 0 772 28" version="1.1" xmlns="http://www.w3.org/2000/svg" xmlns:xlink="http://www.w3.org/1999/xlink">
    <!-- Generator: Sketch 55.2 (78181) - https://sketchapp.com -->
    <title>Group 7</title>
    <desc>Created with Sketch.</desc>
    <g id="Page-1" stroke="none" stroke-width="1" fill="none" fill-rule="evenodd">
        <g id="Landing-Page---Desktop" transform="translate(-312.000000, -440.000000)" fill="#51C07F">
            <g id="Group-7" transform="translate(312.000000, 440.000000)">
                <circle id="Oval" cx="2" cy="2" r="2"></circle>
                <circle id="Oval" cx="74" cy="2" r="2"></circle>
                <circle id="Oval" cx="2" cy="14" r="2"></circle>
                <circle id="Oval" cx="74" cy="14" r="2"></circle>
                <circle id="Oval" cx="2" cy="26" r="2"></circle>
                <circle id="Oval" cx="74" cy="26" r="2"></circle>
                <circle id="Oval" cx="14" cy="2" r="2"></circle>
                <circle id="Oval" cx="86" cy="2" r="2"></circle>
                <circle id="Oval" cx="14" cy="14" r="2"></circle>
                <circle id="Oval" cx="86" cy="14" r="2"></circle>
                <circle id="Oval" cx="14" cy="26" r="2"></circle>
                <circle id="Oval" cx="86" cy="26" r="2"></circle>
                <circle id="Oval" cx="26" cy="2" r="2"></circle>
                <circle id="Oval" cx="98" cy="2" r="2"></circle>
                <circle id="Oval" cx="26" cy="14" r="2"></circle>
                <circle id="Oval" cx="98" cy="14" r="2"></circle>
                <circle id="Oval" cx="26" cy="26" r="2"></circle>
                <circle id="Oval" cx="98" cy="26" r="2"></circle>
                <circle id="Oval" cx="38" cy="2" r="2"></circle>
                <circle id="Oval" cx="110" cy="2" r="2"></circle>
                <circle id="Oval" cx="146" cy="2" r="2"></circle>
                <circle id="Oval" cx="194" cy="2" r="2"></circle>
                <circle id="Oval" cx="38" cy="14" r="2"></circle>
                <circle id="Oval" cx="110" cy="14" r="2"></circle>
                <circle id="Oval" cx="146" cy="14" r="2"></circle>
                <circle id="Oval" cx="194" cy="14" r="2"></circle>
                <circle id="Oval" cx="38" cy="26" r="2"></circle>
                <circle id="Oval" cx="110" cy="26" r="2"></circle>
                <circle id="Oval" cx="146" cy="26" r="2"></circle>
                <circle id="Oval" cx="194" cy="26" r="2"></circle>
                <circle id="Oval" cx="50" cy="2" r="2"></circle>
                <circle id="Oval" cx="122" cy="2" r="2"></circle>
                <circle id="Oval" cx="158" cy="2" r="2"></circle>
                <circle id="Oval" cx="206" cy="2" r="2"></circle>
                <circle id="Oval" cx="50" cy="14" r="2"></circle>
                <circle id="Oval" cx="122" cy="14" r="2"></circle>
                <circle id="Oval" cx="158" cy="14" r="2"></circle>
                <circle id="Oval" cx="206" cy="14" r="2"></circle>
                <circle id="Oval" cx="50" cy="26" r="2"></circle>
                <circle id="Oval" cx="122" cy="26" r="2"></circle>
                <circle id="Oval" cx="158" cy="26" r="2"></circle>
                <circle id="Oval" cx="206" cy="26" r="2"></circle>
                <circle id="Oval" cx="62" cy="2" r="2"></circle>
                <circle id="Oval" cx="134" cy="2" r="2"></circle>
                <circle id="Oval" cx="182" cy="2" r="2"></circle>
                <circle id="Oval" cx="170" cy="2" r="2"></circle>
                <circle id="Oval" cx="218" cy="2" r="2"></circle>
                <circle id="Oval" cx="62" cy="14" r="2"></circle>
                <circle id="Oval" cx="134" cy="14" r="2"></circle>
                <circle id="Oval" cx="182" cy="14" r="2"></circle>
                <circle id="Oval" cx="170" cy="14" r="2"></circle>
                <circle id="Oval" cx="218" cy="14" r="2"></circle>
                <circle id="Oval" cx="62" cy="26" r="2"></circle>
                <circle id="Oval" cx="134" cy="26" r="2"></circle>
                <circle id="Oval" cx="182" cy="26" r="2"></circle>
                <circle id="Oval" cx="170" cy="26" r="2"></circle>
                <circle id="Oval" cx="218" cy="26" r="2"></circle>
                <circle id="Oval" cx="218" cy="2" r="2"></circle>
                <circle id="Oval" cx="290" cy="2" r="2"></circle>
                <circle id="Oval" cx="218" cy="14" r="2"></circle>
                <circle id="Oval" cx="290" cy="14" r="2"></circle>
                <circle id="Oval" cx="218" cy="26" r="2"></circle>
                <circle id="Oval" cx="290" cy="26" r="2"></circle>
                <circle id="Oval" cx="230" cy="2" r="2"></circle>
                <circle id="Oval" cx="302" cy="2" r="2"></circle>
                <circle id="Oval" cx="230" cy="14" r="2"></circle>
                <circle id="Oval" cx="302" cy="14" r="2"></circle>
                <circle id="Oval" cx="230" cy="26" r="2"></circle>
                <circle id="Oval" cx="302" cy="26" r="2"></circle>
                <circle id="Oval" cx="242" cy="2" r="2"></circle>
                <circle id="Oval" cx="314" cy="2" r="2"></circle>
                <circle id="Oval" cx="242" cy="14" r="2"></circle>
                <circle id="Oval" cx="314" cy="14" r="2"></circle>
                <circle id="Oval" cx="242" cy="26" r="2"></circle>
                <circle id="Oval" cx="314" cy="26" r="2"></circle>
                <circle id="Oval" cx="254" cy="2" r="2"></circle>
                <circle id="Oval" cx="326" cy="2" r="2"></circle>
                <circle id="Oval" cx="362" cy="2" r="2"></circle>
                <circle id="Oval" cx="410" cy="2" r="2"></circle>
                <circle id="Oval" cx="254" cy="14" r="2"></circle>
                <circle id="Oval" cx="326" cy="14" r="2"></circle>
                <circle id="Oval" cx="362" cy="14" r="2"></circle>
                <circle id="Oval" cx="410" cy="14" r="2"></circle>
                <circle id="Oval" cx="254" cy="26" r="2"></circle>
                <circle id="Oval" cx="326" cy="26" r="2"></circle>
                <circle id="Oval" cx="362" cy="26" r="2"></circle>
                <circle id="Oval" cx="410" cy="26" r="2"></circle>
                <circle id="Oval" cx="266" cy="2" r="2"></circle>
                <circle id="Oval" cx="338" cy="2" r="2"></circle>
                <circle id="Oval" cx="374" cy="2" r="2"></circle>
                <circle id="Oval" cx="422" cy="2" r="2"></circle>
                <circle id="Oval" cx="266" cy="14" r="2"></circle>
                <circle id="Oval" cx="338" cy="14" r="2"></circle>
                <circle id="Oval" cx="374" cy="14" r="2"></circle>
                <circle id="Oval" cx="422" cy="14" r="2"></circle>
                <circle id="Oval" cx="266" cy="26" r="2"></circle>
                <circle id="Oval" cx="338" cy="26" r="2"></circle>
                <circle id="Oval" cx="374" cy="26" r="2"></circle>
                <circle id="Oval" cx="422" cy="26" r="2"></circle>
                <circle id="Oval" cx="278" cy="2" r="2"></circle>
                <circle id="Oval" cx="350" cy="2" r="2"></circle>
                <circle id="Oval" cx="398" cy="2" r="2"></circle>
                <circle id="Oval" cx="386" cy="2" r="2"></circle>
                <circle id="Oval" cx="434" cy="2" r="2"></circle>
                <circle id="Oval" cx="278" cy="14" r="2"></circle>
                <circle id="Oval" cx="350" cy="14" r="2"></circle>
                <circle id="Oval" cx="398" cy="14" r="2"></circle>
                <circle id="Oval" cx="386" cy="14" r="2"></circle>
                <circle id="Oval" cx="434" cy="14" r="2"></circle>
                <circle id="Oval" cx="278" cy="26" r="2"></circle>
                <circle id="Oval" cx="350" cy="26" r="2"></circle>
                <circle id="Oval" cx="398" cy="26" r="2"></circle>
                <circle id="Oval" cx="386" cy="26" r="2"></circle>
                <circle id="Oval" cx="434" cy="26" r="2"></circle>
                <circle id="Oval" cx="434" cy="2" r="2"></circle>
                <circle id="Oval" cx="506" cy="2" r="2"></circle>
                <circle id="Oval" cx="434" cy="14" r="2"></circle>
                <circle id="Oval" cx="506" cy="14" r="2"></circle>
                <circle id="Oval" cx="434" cy="26" r="2"></circle>
                <circle id="Oval" cx="506" cy="26" r="2"></circle>
                <circle id="Oval" cx="446" cy="2" r="2"></circle>
                <circle id="Oval" cx="518" cy="2" r="2"></circle>
                <circle id="Oval" cx="446" cy="14" r="2"></circle>
                <circle id="Oval" cx="518" cy="14" r="2"></circle>
                <circle id="Oval" cx="446" cy="26" r="2"></circle>
                <circle id="Oval" cx="518" cy="26" r="2"></circle>
                <circle id="Oval" cx="458" cy="2" r="2"></circle>
                <circle id="Oval" cx="530" cy="2" r="2"></circle>
                <circle id="Oval" cx="458" cy="14" r="2"></circle>
                <circle id="Oval" cx="530" cy="14" r="2"></circle>
                <circle id="Oval" cx="458" cy="26" r="2"></circle>
                <circle id="Oval" cx="530" cy="26" r="2"></circle>
                <circle id="Oval" cx="470" cy="2" r="2"></circle>
                <circle id="Oval" cx="542" cy="2" r="2"></circle>
                <circle id="Oval" cx="578" cy="2" r="2"></circle>
                <circle id="Oval" cx="626" cy="2" r="2"></circle>
                <circle id="Oval" cx="470" cy="14" r="2"></circle>
                <circle id="Oval" cx="542" cy="14" r="2"></circle>
                <circle id="Oval" cx="578" cy="14" r="2"></circle>
                <circle id="Oval" cx="626" cy="14" r="2"></circle>
                <circle id="Oval" cx="470" cy="26" r="2"></circle>
                <circle id="Oval" cx="542" cy="26" r="2"></circle>
                <circle id="Oval" cx="578" cy="26" r="2"></circle>
                <circle id="Oval" cx="626" cy="26" r="2"></circle>
                <circle id="Oval" cx="482" cy="2" r="2"></circle>
                <circle id="Oval" cx="554" cy="2" r="2"></circle>
                <circle id="Oval" cx="590" cy="2" r="2"></circle>
                <circle id="Oval" cx="638" cy="2" r="2"></circle>
                <circle id="Oval" cx="482" cy="14" r="2"></circle>
                <circle id="Oval" cx="554" cy="14" r="2"></circle>
                <circle id="Oval" cx="590" cy="14" r="2"></circle>
                <circle id="Oval" cx="638" cy="14" r="2"></circle>
                <circle id="Oval" cx="482" cy="26" r="2"></circle>
                <circle id="Oval" cx="554" cy="26" r="2"></circle>
                <circle id="Oval" cx="590" cy="26" r="2"></circle>
                <circle id="Oval" cx="638" cy="26" r="2"></circle>
                <circle id="Oval" cx="494" cy="2" r="2"></circle>
                <circle id="Oval" cx="566" cy="2" r="2"></circle>
                <circle id="Oval" cx="614" cy="2" r="2"></circle>
                <circle id="Oval" cx="602" cy="2" r="2"></circle>
                <circle id="Oval" cx="650" cy="2" r="2"></circle>
                <circle id="Oval" cx="494" cy="14" r="2"></circle>
                <circle id="Oval" cx="566" cy="14" r="2"></circle>
                <circle id="Oval" cx="614" cy="14" r="2"></circle>
                <circle id="Oval" cx="602" cy="14" r="2"></circle>
                <circle id="Oval" cx="650" cy="14" r="2"></circle>
                <circle id="Oval" cx="494" cy="26" r="2"></circle>
                <circle id="Oval" cx="566" cy="26" r="2"></circle>
                <circle id="Oval" cx="614" cy="26" r="2"></circle>
                <circle id="Oval" cx="602" cy="26" r="2"></circle>
                <circle id="Oval" cx="650" cy="26" r="2"></circle>
                <circle id="Oval" cx="650" cy="2" r="2"></circle>
                <circle id="Oval" cx="722" cy="2" r="2"></circle>
                <circle id="Oval" cx="650" cy="14" r="2"></circle>
                <circle id="Oval" cx="722" cy="14" r="2"></circle>
                <circle id="Oval" cx="650" cy="26" r="2"></circle>
                <circle id="Oval" cx="722" cy="26" r="2"></circle>
                <circle id="Oval" cx="662" cy="2" r="2"></circle>
                <circle id="Oval" cx="734" cy="2" r="2"></circle>
                <circle id="Oval" cx="662" cy="14" r="2"></circle>
                <circle id="Oval" cx="734" cy="14" r="2"></circle>
                <circle id="Oval" cx="662" cy="26" r="2"></circle>
                <circle id="Oval" cx="734" cy="26" r="2"></circle>
                <circle id="Oval" cx="674" cy="2" r="2"></circle>
                <circle id="Oval" cx="746" cy="2" r="2"></circle>
                <circle id="Oval" cx="674" cy="14" r="2"></circle>
                <circle id="Oval" cx="746" cy="14" r="2"></circle>
                <circle id="Oval" cx="674" cy="26" r="2"></circle>
                <circle id="Oval" cx="746" cy="26" r="2"></circle>
                <circle id="Oval" cx="686" cy="2" r="2"></circle>
                <circle id="Oval" cx="758" cy="2" r="2"></circle>
                <circle id="Oval" cx="686" cy="14" r="2"></circle>
                <circle id="Oval" cx="758" cy="14" r="2"></circle>
                <circle id="Oval" cx="686" cy="26" r="2"></circle>
                <circle id="Oval" cx="758" cy="26" r="2"></circle>
                <circle id="Oval" cx="698" cy="2" r="2"></circle>
                <circle id="Oval" cx="770" cy="2" r="2"></circle>
                <circle id="Oval" cx="698" cy="14" r="2"></circle>
                <circle id="Oval" cx="770" cy="14" r="2"></circle>
                <circle id="Oval" cx="698" cy="26" r="2"></circle>
                <circle id="Oval" cx="770" cy="26" r="2"></circle>
                <circle id="Oval" cx="710" cy="2" r="2"></circle>
                <circle id="Oval" cx="710" cy="14" r="2"></circle>
                <circle id="Oval" cx="710" cy="26" r="2"></circle>
            </g>
        </g>
    </g>
</svg>
