<?xml version="1.0" encoding="UTF-8"?>
<svg width="363px" height="32px" viewBox="0 0 363 32" version="1.1" xmlns="http://www.w3.org/2000/svg" xmlns:xlink="http://www.w3.org/1999/xlink">
    <!-- Generator: Sketch 58 (84663) - https://sketch.com -->
    <title>Group</title>
    <desc>Created with Sketch.</desc>
    <g id="Blog" stroke="none" stroke-width="1" fill="none" fill-rule="evenodd">
        <g id="Artboard">
            <g id="Group">
                <g id="Group-9" fill="#51C07F">
                    <path d="M16,0 C24.836556,0 32,7.163444 32,16 C32,24.836556 24.836556,32 16,32 C7.163444,32 0,24.836556 0,16 C0,7.163444 7.163444,0 16,0 Z M16,8.88888889 C12.0726418,8.88888889 8.88888889,12.0726418 8.88888889,16 C8.88888889,19.9273582 12.0726418,23.1111111 16,23.1111111 C19.9273582,23.1111111 23.1111111,19.9273582 23.1111111,16 C23.1111111,12.0726418 19.9273582,8.88888889 16,8.88888889 Z" id="Combined-Shape"></path>
                </g>
                <path d="M64.5228426,5.78898226 L64.5228426,24.7973856 L59.893401,24.7973856 L59.893401,12.9103641 L55.7783418,24.7973856 L51.7715736,24.7973856 L47.6294416,12.8832866 L47.6294416,24.7973856 L43,24.7973856 L43,5.78898226 L48.6582064,5.78898226 L53.8291032,19.0298786 L58.891709,5.78898226 L64.5228426,5.78898226 Z M67.284264,5.43697479 C67.284264,4.73295633 67.5369405,4.15079595 68.0423012,3.69047619 C68.5476619,3.23015643 69.2154499,3 70.0456853,3 C70.8759207,3 71.5437087,3.23015643 72.0490694,3.69047619 C72.5544301,4.15079595 72.8071066,4.73295633 72.8071066,5.43697479 C72.8071066,6.12294149 72.5544301,6.69607613 72.0490694,7.15639589 C71.5437087,7.61671565 70.8759207,7.84687208 70.0456853,7.84687208 C69.2154499,7.84687208 68.5476619,7.61671565 68.0423012,7.15639589 C67.5369405,6.69607613 67.284264,6.12294149 67.284264,5.43697479 Z M72.3468697,9.68814192 L72.3468697,24.7973856 L67.7174281,24.7973856 L67.7174281,9.68814192 L72.3468697,9.68814192 Z M80.1708968,4.76003735 L80.1708968,24.7973856 L75.5414552,24.7973856 L75.5414552,4.76003735 L80.1708968,4.76003735 Z M87.9949239,4.76003735 L87.9949239,24.7973856 L83.3654822,24.7973856 L83.3654822,4.76003735 L87.9949239,4.76003735 Z M105.538071,16.8366013 C105.538071,17.2156882 105.49295,17.6308723 105.402707,18.0821662 L94.9255499,18.0821662 C94.9796957,19.2194268 95.2684689,20.0362565 95.7918782,20.5326797 C96.3152874,21.029103 96.9830755,21.2773109 97.7952623,21.2773109 C98.4811089,21.2773109 99.0496311,21.1058218 99.500846,20.7628385 C99.9520609,20.4198551 100.249858,19.9775937 100.394247,19.4360411 L105.294416,19.4360411 C105.095882,20.5010946 104.662722,21.4533105 103.994924,22.2927171 C103.327126,23.1321237 102.478855,23.7910029 101.450085,24.2693744 C100.421315,24.7477459 99.275246,24.9869281 98.0118443,24.9869281 C96.5318595,24.9869281 95.2188439,24.67554 94.072758,24.0527544 C92.9266722,23.4299689 92.0287681,22.5319075 91.3790186,21.3585434 C90.7292692,20.1851793 90.4043993,18.8132665 90.4043993,17.2427638 C90.4043993,15.6542093 90.7247571,14.2777836 91.3654822,13.1134454 C92.0062074,11.9491072 92.9041115,11.0555587 94.0592217,10.4327731 C95.2143318,9.80998755 96.5318595,9.49859944 98.0118443,9.49859944 C99.5098778,9.49859944 100.827405,9.80547468 101.964467,10.4192344 C103.101529,11.032994 103.981384,11.8949524 104.604061,13.0051354 C105.226737,14.1153183 105.538071,15.3924609 105.538071,16.8366013 Z M100.854484,16.1325864 C100.872533,15.1397398 100.60632,14.3951161 100.055838,13.8986928 C99.5053554,13.4022695 98.8240311,13.1540616 98.0118443,13.1540616 C97.1635603,13.1540616 96.4596757,13.4067824 95.9001692,13.9122316 C95.3406627,14.4176807 95.0248171,15.1577916 94.9526227,16.1325864 L100.854484,16.1325864 Z M117.531303,9.52567694 C119.263968,9.52567694 120.640153,10.1033244 121.659898,11.2586368 C122.679644,12.4139491 123.189509,14.0024798 123.189509,16.0242764 L123.189509,24.7973856 L118.560068,24.7973856 L118.560068,16.5658263 C118.560068,15.554928 118.293855,14.7651756 117.761421,14.1965453 C117.228988,13.627915 116.520591,13.3436041 115.63621,13.3436041 C114.697683,13.3436041 113.953189,13.6414536 113.402707,14.2371615 C112.852225,14.8328695 112.576988,15.6812892 112.576988,16.7824463 L112.576988,24.7973856 L107.947547,24.7973856 L107.947547,9.68814192 L112.576988,9.68814192 L112.576988,12.4500467 C113.010154,11.5474589 113.655382,10.8344253 114.51269,10.3109244 C115.369999,9.78742346 116.376193,9.52567694 117.531303,9.52567694 Z M135.832487,9.52567694 C137.565152,9.52567694 138.941337,10.1033244 139.961083,11.2586368 C140.980829,12.4139491 141.490694,14.0024798 141.490694,16.0242764 L141.490694,24.7973856 L136.861252,24.7973856 L136.861252,16.5658263 C136.861252,15.554928 136.595039,14.7651756 136.062606,14.1965453 C135.530172,13.627915 134.821775,13.3436041 133.937394,13.3436041 C132.998867,13.3436041 132.254374,13.6414536 131.703892,14.2371615 C131.15341,14.8328695 130.878173,15.6812892 130.878173,16.7824463 L130.878173,24.7973856 L126.248731,24.7973856 L126.248731,9.68814192 L130.878173,9.68814192 L130.878173,12.4500467 C131.311339,11.5474589 131.956566,10.8344253 132.813875,10.3109244 C133.671183,9.78742346 134.677377,9.52567694 135.832487,9.52567694 Z M144.116751,5.43697479 C144.116751,4.73295633 144.369428,4.15079595 144.874788,3.69047619 C145.380149,3.23015643 146.047937,3 146.878173,3 C147.708408,3 148.376196,3.23015643 148.881557,3.69047619 C149.386917,4.15079595 149.639594,4.73295633 149.639594,5.43697479 C149.639594,6.12294149 149.386917,6.69607613 148.881557,7.15639589 C148.376196,7.61671565 147.708408,7.84687208 146.878173,7.84687208 C146.047937,7.84687208 145.380149,7.61671565 144.874788,7.15639589 C144.369428,6.69607613 144.116751,6.12294149 144.116751,5.43697479 Z M149.179357,9.68814192 L149.179357,24.7973856 L144.549915,24.7973856 L144.549915,9.68814192 L149.179357,9.68814192 Z M158.113367,9.49859944 C159.268477,9.49859944 160.261135,9.76034597 161.091371,10.2838469 C161.921606,10.8073478 162.535249,11.5203814 162.932318,12.4229692 L162.932318,9.68814192 L167.534687,9.68814192 L167.534687,24.7973856 L162.932318,24.7973856 L162.932318,22.0625584 C162.535249,22.9651461 161.921606,23.6781798 161.091371,24.2016807 C160.261135,24.7251816 159.268477,24.9869281 158.113367,24.9869281 C156.868014,24.9869281 155.75353,24.67554 154.769882,24.0527544 C153.786233,23.4299689 153.010155,22.5319075 152.441624,21.3585434 C151.873094,20.1851793 151.588832,18.8132665 151.588832,17.2427638 C151.588832,15.6542093 151.873094,14.2777836 152.441624,13.1134454 C153.010155,11.9491072 153.786233,11.0555587 154.769882,10.4327731 C155.75353,9.80998755 156.868014,9.49859944 158.113367,9.49859944 Z M159.602369,13.5602241 C158.609696,13.5602241 157.811058,13.8851508 157.20643,14.535014 C156.601802,15.1848772 156.299492,16.0874514 156.299492,17.2427638 C156.299492,18.3980761 156.601802,19.3006503 157.20643,19.9505135 C157.811058,20.6003767 158.609696,20.9253035 159.602369,20.9253035 C160.576993,20.9253035 161.375635,20.591351 161.998308,19.923436 C162.620985,19.2555211 162.932318,18.3619726 162.932318,17.2427638 C162.932318,16.1055032 162.620985,15.2074418 161.998308,14.5485528 C161.375635,13.8896637 160.576993,13.5602241 159.602369,13.5602241 Z M175.358714,4.76003735 L175.358714,24.7973856 L170.729272,24.7973856 L170.729272,4.76003735 L175.358714,4.76003735 Z M205.490694,5.78898226 L205.490694,24.7973856 L200.861252,24.7973856 L200.861252,12.9103641 L196.746193,24.7973856 L192.739425,24.7973856 L188.597293,12.8832866 L188.597293,24.7973856 L183.967851,24.7973856 L183.967851,5.78898226 L189.626058,5.78898226 L194.796954,19.0298786 L199.85956,5.78898226 L205.490694,5.78898226 Z M215.751269,9.49859944 C217.249302,9.49859944 218.589391,9.80998755 219.771574,10.4327731 C220.953757,11.0555587 221.883245,11.95362 222.560068,13.1269841 C223.23689,14.3003482 223.575296,15.6722611 223.575296,17.2427638 C223.575296,18.8132665 223.23689,20.1851793 222.560068,21.3585434 C221.883245,22.5319075 220.953757,23.4299689 219.771574,24.0527544 C218.589391,24.67554 217.249302,24.9869281 215.751269,24.9869281 C214.253236,24.9869281 212.908635,24.67554 211.717428,24.0527544 C210.526221,23.4299689 209.592217,22.5319075 208.915398,21.3585434 C208.238575,20.1851793 207.900169,18.8132665 207.900169,17.2427638 C207.900169,15.6722611 208.238575,14.3003482 208.915398,13.1269841 C209.592217,11.95362 210.526221,11.0555587 211.717428,10.4327731 C212.908635,9.80998755 214.253236,9.49859944 215.751269,9.49859944 Z M215.751269,13.5060691 C214.866892,13.5060691 214.122394,13.8264829 213.517766,14.4673203 C212.913139,15.1081576 212.610829,16.0332962 212.610829,17.2427638 C212.610829,18.4522314 212.913139,19.3728571 213.517766,20.0046685 C214.122394,20.63648 214.866892,20.952381 215.751269,20.952381 C216.63565,20.952381 217.375632,20.63648 217.971235,20.0046685 C218.566839,19.3728571 218.864636,18.4522314 218.864636,17.2427638 C218.864636,16.0332962 218.566839,15.1081576 217.971235,14.4673203 C217.375632,13.8264829 216.63565,13.5060691 215.751269,13.5060691 Z M235.568528,9.52567694 C237.301193,9.52567694 238.677378,10.1033244 239.697124,11.2586368 C240.716869,12.4139491 241.226734,14.0024798 241.226734,16.0242764 L241.226734,24.7973856 L236.597293,24.7973856 L236.597293,16.5658263 C236.597293,15.554928 236.33108,14.7651756 235.798646,14.1965453 C235.266213,13.627915 234.557816,13.3436041 233.673435,13.3436041 C232.734908,13.3436041 231.990414,13.6414536 231.439932,14.2371615 C230.88945,14.8328695 230.614213,15.6812892 230.614213,16.7824463 L230.614213,24.7973856 L225.984772,24.7973856 L225.984772,9.68814192 L230.614213,9.68814192 L230.614213,12.4500467 C231.047379,11.5474589 231.692607,10.8344253 232.549915,10.3109244 C233.407224,9.78742346 234.413418,9.52567694 235.568528,9.52567694 Z M258.634518,16.8366013 C258.634518,17.2156882 258.589397,17.6308723 258.499154,18.0821662 L248.021997,18.0821662 C248.076142,19.2194268 248.364916,20.0362565 248.888325,20.5326797 C249.411734,21.029103 250.079522,21.2773109 250.891709,21.2773109 C251.577556,21.2773109 252.146078,21.1058218 252.597293,20.7628385 C253.048508,20.4198551 253.346305,19.9775937 253.490694,19.4360411 L258.390863,19.4360411 C258.192328,20.5010946 257.759169,21.4533105 257.091371,22.2927171 C256.423573,23.1321237 255.575301,23.7910029 254.546531,24.2693744 C253.517761,24.7477459 252.371693,24.9869281 251.108291,24.9869281 C249.628306,24.9869281 248.315291,24.67554 247.169205,24.0527544 C246.023119,23.4299689 245.125215,22.5319075 244.475465,21.3585434 C243.825716,20.1851793 243.500846,18.8132665 243.500846,17.2427638 C243.500846,15.6542093 243.821204,14.2777836 244.461929,13.1134454 C245.102654,11.9491072 246.000558,11.0555587 247.155668,10.4327731 C248.310778,9.80998755 249.628306,9.49859944 251.108291,9.49859944 C252.606324,9.49859944 253.923852,9.80547468 255.060914,10.4192344 C256.197975,11.032994 257.077831,11.8949524 257.700508,13.0051354 C258.323184,14.1153183 258.634518,15.3924609 258.634518,16.8366013 Z M253.950931,16.1325864 C253.968979,15.1397398 253.702766,14.3951161 253.152284,13.8986928 C252.601802,13.4022695 251.920478,13.1540616 251.108291,13.1540616 C250.260007,13.1540616 249.556122,13.4067824 248.996616,13.9122316 C248.437109,14.4176807 248.121264,15.1577916 248.049069,16.1325864 L253.950931,16.1325864 Z M264.536379,9.68814192 L268.164129,18.9486461 L271.548223,9.68814192 L276.664975,9.68814192 L267.243655,32 L262.153976,32 L265.700508,24.2287582 L259.365482,9.68814192 L264.536379,9.68814192 Z M292.583756,5.46405229 C294.98422,5.46405229 296.960511,6.05072554 298.51269,7.22408964 C300.06487,8.39745373 301.030455,9.98598438 301.409475,11.9897292 L296.509306,11.9897292 C296.184432,11.3037625 295.688103,10.7577051 295.020305,10.3515406 C294.352507,9.94537612 293.549356,9.74229692 292.610829,9.74229692 C291.148893,9.74229692 289.975752,10.2341999 289.091371,11.2180205 C288.206989,12.2018412 287.764805,13.5331382 287.764805,15.2119514 C287.764805,17.0351787 288.22955,18.4341688 289.159052,19.4089636 C290.088555,20.3837584 291.410595,20.8711485 293.125212,20.8711485 C294.226176,20.8711485 295.191761,20.5687861 296.021997,19.9640523 C296.852232,19.3593185 297.438803,18.4973601 297.781726,17.3781513 L291.93401,17.3781513 L291.93401,14.047619 L301.65313,14.047619 L301.65313,18.6237162 C301.292158,19.742925 300.714612,20.7808854 299.920474,21.7376284 C299.126336,22.6943714 298.111117,23.4705853 296.874788,24.0662932 C295.63846,24.6620011 294.226178,24.9598506 292.637902,24.9598506 C290.706702,24.9598506 289.019184,24.5491793 287.575296,23.7278245 C286.131408,22.9064696 285.016924,21.7556875 284.23181,20.2754435 C283.446697,18.7951996 283.054146,17.1073858 283.054146,15.2119514 C283.054146,13.3165171 283.446697,11.6287033 284.23181,10.1484594 C285.016924,8.66821544 286.126896,7.5174333 287.56176,6.69607843 C288.996623,5.87472356 290.670605,5.46405229 292.583756,5.46405229 Z M319.277496,9.68814192 L319.277496,24.7973856 L314.620981,24.7973856 L314.620981,22.0625584 C314.187817,22.9470944 313.542587,23.6511023 312.685279,24.1746032 C311.827971,24.6981041 310.830801,24.9598506 309.693739,24.9598506 C307.961074,24.9598506 306.584889,24.3822031 305.565144,23.2268908 C304.545398,22.0715784 304.035533,20.4830478 304.035533,18.4612512 L304.035533,9.68814192 L308.637902,9.68814192 L308.637902,17.8926237 C308.637902,18.9215738 308.904115,19.720352 309.436548,20.2889823 C309.968982,20.8576126 310.686403,21.1419234 311.588832,21.1419234 C312.527359,21.1419234 313.267341,20.8440739 313.808799,20.248366 C314.350257,19.6526581 314.620981,18.8042383 314.620981,17.7030812 L314.620981,9.68814192 L319.277496,9.68814192 Z M322.038917,5.43697479 C322.038917,4.73295633 322.291594,4.15079595 322.796954,3.69047619 C323.302315,3.23015643 323.970103,3 324.800338,3 C325.630574,3 326.298362,3.23015643 326.803723,3.69047619 C327.309083,4.15079595 327.56176,4.73295633 327.56176,5.43697479 C327.56176,6.12294149 327.309083,6.69607613 326.803723,7.15639589 C326.298362,7.61671565 325.630574,7.84687208 324.800338,7.84687208 C323.970103,7.84687208 323.302315,7.61671565 322.796954,7.15639589 C322.291594,6.69607613 322.038917,6.12294149 322.038917,5.43697479 Z M327.101523,9.68814192 L327.101523,24.7973856 L322.472081,24.7973856 L322.472081,9.68814192 L327.101523,9.68814192 Z M336.035533,9.49859944 C337.190643,9.49859944 338.183301,9.76034597 339.013536,10.2838469 C339.843772,10.8073478 340.448391,11.5203814 340.827411,12.4229692 L340.827411,4.76003735 L345.456853,4.76003735 L345.456853,24.7973856 L340.827411,24.7973856 L340.827411,22.0625584 C340.448391,22.9651461 339.843772,23.6781798 339.013536,24.2016807 C338.183301,24.7251816 337.190643,24.9869281 336.035533,24.9869281 C334.79018,24.9869281 333.675696,24.67554 332.692047,24.0527544 C331.708399,23.4299689 330.932321,22.5319075 330.36379,21.3585434 C329.795259,20.1851793 329.510998,18.8132665 329.510998,17.2427638 C329.510998,15.6542093 329.795259,14.2777836 330.36379,13.1134454 C330.932321,11.9491072 331.708399,11.0555587 332.692047,10.4327731 C333.675696,9.80998755 334.79018,9.49859944 336.035533,9.49859944 Z M337.524535,13.5602241 C336.531862,13.5602241 335.733224,13.8851508 335.128596,14.535014 C334.523968,15.1848772 334.221658,16.0874514 334.221658,17.2427638 C334.221658,18.3980761 334.523968,19.3006503 335.128596,19.9505135 C335.733224,20.6003767 336.531862,20.9253035 337.524535,20.9253035 C338.499159,20.9253035 339.2978,20.591351 339.920474,19.923436 C340.54315,19.2555211 340.854484,18.3619726 340.854484,17.2427638 C340.854484,16.1055032 340.54315,15.2074418 339.920474,14.5485528 C339.2978,13.8896637 338.499159,13.5602241 337.524535,13.5602241 Z M363,16.8366013 C363,17.2156882 362.954879,17.6308723 362.864636,18.0821662 L352.387479,18.0821662 C352.441625,19.2194268 352.730398,20.0362565 353.253807,20.5326797 C353.777216,21.029103 354.445004,21.2773109 355.257191,21.2773109 C355.943038,21.2773109 356.51156,21.1058218 356.962775,20.7628385 C357.41399,20.4198551 357.711787,19.9775937 357.856176,19.4360411 L362.756345,19.4360411 C362.557811,20.5010946 362.124651,21.4533105 361.456853,22.2927171 C360.789055,23.1321237 359.940783,23.7910029 358.912014,24.2693744 C357.883244,24.7477459 356.737175,24.9869281 355.473773,24.9869281 C353.993788,24.9869281 352.680773,24.67554 351.534687,24.0527544 C350.388601,23.4299689 349.490697,22.5319075 348.840948,21.3585434 C348.191198,20.1851793 347.866328,18.8132665 347.866328,17.2427638 C347.866328,15.6542093 348.186686,14.2777836 348.827411,13.1134454 C349.468136,11.9491072 350.36604,11.0555587 351.521151,10.4327731 C352.676261,9.80998755 353.993788,9.49859944 355.473773,9.49859944 C356.971807,9.49859944 358.289334,9.80547468 359.426396,10.4192344 C360.563457,11.032994 361.443313,11.8949524 362.06599,13.0051354 C362.688666,14.1153183 363,15.3924609 363,16.8366013 Z M358.316413,16.1325864 C358.334461,15.1397398 358.068249,14.3951161 357.517766,13.8986928 C356.967284,13.4022695 356.28596,13.1540616 355.473773,13.1540616 C354.625489,13.1540616 353.921605,13.4067824 353.362098,13.9122316 C352.802592,14.4176807 352.486746,15.1577916 352.414552,16.1325864 L358.316413,16.1325864 Z" id="MillennialMoneyGuide" fill="#FFFFFF" fill-rule="nonzero"></path>
            </g>
        </g>
    </g>
</svg>